# xmcd
#
# Track frame offsets:
#	180
#	18905
#	38085
#	58205
#	80160
#	104915
#	123420
#	146095
#	165920
#	184145
#	202270
#
# Disc length: 2983 seconds
#
# Revision: 1
# Processed by: cddbd v1.4PL0 Copyright (c) Steve Scherf et al.
# Submitted via: audiograbber 1.80
#
DISCID=a20ba50b
DTITLE=Gigi D´Alessio - Dove mi porta il cuore
DYEAR=1900
DGENRE=
TTITLE0=Sotto le lenzuola
TTITLE1=A riva e mare
TTITLE2=Sconfitta d´amore
TTITLE3=È guaglione e Napule
TTITLE4=Comme si fragile
TTITLE5=Non raccontarlo al tuo ragazzo
TTITLE6=Na canzona nova
TTITLE7=Carmé
TTITLE8=Un momento di crisi
TTITLE9=Addó mi porto ò core
TTITLE10=Come in un film
EXTD=
EXTT0=
EXTT1=
EXTT2=
EXTT3=
EXTT4=
EXTT5=
EXTT6=
EXTT7=
EXTT8=
EXTT9=
EXTT10=
PLAYORDER=
